mtllib model_5.mtl
o model_5
v 10.167874336242676 176.11312866210938 16.73843765258789 
v 10.539437294006348 176.8450927734375 15.02678394317627 
v 9.701859474182129 175.88046264648438 18.54343605041504 
v 9.929792404174805 177.46070861816406 16.2564697265625 
v 8.58482551574707 175.92813110351562 20.824689865112305 
v 9.135144233703613 178.0924835205078 17.91859245300293 
v 7.097007751464844 176.2997589111328 23.216432571411133 
v 7.1680402755737305 178.6822509765625 19.993152618408203 
v 4.916019916534424 176.5623321533203 24.844266891479492 
v 4.973782539367676 179.06114196777344 21.583839416503906 
v 3.1971449851989746 176.74249267578125 25.70819091796875 
v 3.2338309288024902 179.12416076660156 22.25345230102539 
v 1.7194743156433105 176.8523712158203 26.25302505493164 
v 1.742109775543213 179.1605224609375 22.708749771118164 
v -1.6847108602523804 176.8523712158203 26.253026962280273 
v -1.7073501348495483 179.1605224609375 22.708751678466797 
v -3.162382125854492 176.74249267578125 25.708194732666016 
v -3.1990721225738525 179.12416076660156 22.253456115722656 
v -4.881258010864258 176.5623321533203 24.84427261352539 
v -4.939023971557617 179.06114196777344 21.583845138549805 
v -7.062248229980469 176.2997589111328 23.216440200805664 
v -7.133284091949463 178.6822509765625 19.993160247802734 
v -8.550067901611328 175.92813110351562 20.82469940185547 
v -9.100390434265137 178.0924835205078 17.918603897094727 
v -9.66710376739502 175.88046264648438 18.543447494506836 
v -9.895039558410645 177.46070861816406 16.256481170654297 
v -10.133121490478516 176.11312866210938 16.738449096679688 
v -10.504687309265137 176.8450927734375 15.026795387268066 
v 10.144455909729004 176.5994873046875 14.781037330627441 
v 9.849390029907227 175.93055725097656 16.47935676574707 
v 9.929792404174805 177.46070861816406 16.2564697265625 
v 9.397425651550293 175.7051544189453 18.22815704345703 
v 9.135144233703613 178.0924835205078 17.91859245300293 
v 8.315518379211426 175.75201416015625 20.43701934814453 
v 7.1680402755737305 178.6822509765625 19.993152618408203 
v 6.874537467956543 176.1107177734375 22.753515243530273 
v 4.973782539367676 179.06114196777344 21.583839416503906 
v 4.762241840362549 176.3660125732422 24.330867767333984 
v 3.2338309288024902 179.12416076660156 22.25345230102539 
v 3.098008871078491 176.54051208496094 25.168121337890625 
v 1.742109775543213 179.1605224609375 22.708749771118164 
v 1.6663933992385864 176.64634704589844 25.695810317993164 
v -1.7073501348495483 179.1605224609375 22.708751678466797 
v -1.631630539894104 176.64634704589844 25.695812225341797 
v -3.1990721225738525 179.12416076660156 22.253456115722656 
v -3.063246488571167 176.54051208496094 25.168123245239258 
v -4.939023971557617 179.06114196777344 21.583845138549805 
v -4.727480411529541 176.3660125732422 24.33087158203125 
v -7.133284091949463 178.6822509765625 19.993160247802734 
v -6.839777946472168 176.1107177734375 22.753522872924805 
v -9.100390434265137 178.0924835205078 17.918603897094727 
v -8.280762672424316 175.75201416015625 20.437028884887695 
v -9.895039558410645 177.46070861816406 16.256481170654297 
v -9.3626708984375 175.7051544189453 18.228168487548828 
v -10.109704971313477 176.5994873046875 14.781048774719238 
v -9.814638137817383 175.93055725097656 16.479366302490234 
v 10.539437294006348 176.8450927734375 15.02678394317627 
v 10.167874336242676 176.11312866210938 16.73843765258789 
v 10.144455909729004 176.5994873046875 14.781037330627441 
v 9.849390029907227 175.93055725097656 16.47935676574707 
v 9.701859474182129 175.88046264648438 18.54343605041504 
v 9.397425651550293 175.7051544189453 18.22815704345703 
v 8.58482551574707 175.92813110351562 20.824689865112305 
v 8.315518379211426 175.75201416015625 20.43701934814453 
v 7.097007751464844 176.2997589111328 23.216432571411133 
v 6.874537467956543 176.1107177734375 22.753515243530273 
v 4.916019916534424 176.5623321533203 24.844266891479492 
v 4.762241840362549 176.3660125732422 24.330867767333984 
v 3.1971449851989746 176.74249267578125 25.70819091796875 
v 3.098008871078491 176.54051208496094 25.168121337890625 
v 1.7194743156433105 176.8523712158203 26.25302505493164 
v 1.6663933992385864 176.64634704589844 25.695810317993164 
v -1.6847108602523804 176.8523712158203 26.253026962280273 
v -1.631630539894104 176.64634704589844 25.695812225341797 
v -3.162382125854492 176.74249267578125 25.708194732666016 
v -3.063246488571167 176.54051208496094 25.168123245239258 
v -4.881258010864258 176.5623321533203 24.84427261352539 
v -4.727480411529541 176.3660125732422 24.33087158203125 
v -7.062248229980469 176.2997589111328 23.216440200805664 
v -6.839777946472168 176.1107177734375 22.753522872924805 
v -8.550067901611328 175.92813110351562 20.82469940185547 
v -8.280762672424316 175.75201416015625 20.437028884887695 
v -9.66710376739502 175.88046264648438 18.543447494506836 
v -9.3626708984375 175.7051544189453 18.228168487548828 
v -10.133121490478516 176.11312866210938 16.738449096679688 
v -9.814638137817383 175.93055725097656 16.479366302490234 
v -10.109704971313477 176.5994873046875 14.781048774719238 
v -10.504687309265137 176.8450927734375 15.026795387268066 
vn 0.008979115635156631 0.002592424163594842 0.0028284171130508184 
vn 0.008979115635156631 0.002592424163594842 0.0028284171130508184 
vn 0.00859824288636446 0.0030822395347058773 0.003451832802966237 
vn 0.008824098855257034 0.0027974576223641634 0.0031071901321411133 
vn 0.007497674319893122 0.004608823452144861 0.004229509737342596 
vn 0.008128670044243336 0.0038006643299013376 0.0038502998650074005 
vn 0.005591418128460646 0.006267405580729246 0.004980040248483419 
vn 0.0063604931347072124 0.0056944554671645164 0.004739455413073301 
vn 0.0036455232184380293 0.00724975997582078 0.005431046709418297 
vn 0.004079234320670366 0.00707580428570509 0.00535144517198205 
vn 0.002496581058949232 0.007741271052509546 0.0054023084230721 
vn 0.0026633855886757374 0.007688968908041716 0.005397338420152664 
vn 0.0010235448135063052 0.008114423602819443 0.0053341928869485855 
vn 0.0011498238891363144 0.008090614341199398 0.0053446232341229916 
vn -0.001023538876324892 0.008114423602819443 0.00533419381827116 
vn -0.001185745932161808 0.008090614341199398 0.005336768925189972 
vn -0.002496575005352497 0.007741271052509546 0.0054023112170398235 
vn -0.0026633795350790024 0.007688968908041716 0.005397341679781675 
vn -0.0036455171648412943 0.00724975997582078 0.005431050900369883 
vn -0.004079228267073631 0.00707580428570509 0.005351449828594923 
vn -0.005566861480474472 0.006267405580729246 0.005007476080209017 
vn -0.006338425911962986 0.0056944554671645164 0.004768926650285721 
vn -0.007497669663280249 0.004608823452144861 0.004229518119245768 
vn -0.008112826384603977 0.0038006643299013376 0.003883571131154895 
vn -0.008598239161074162 0.0030822395347058773 0.0034518425818532705 
vn -0.00882409606128931 0.0027974576223641634 0.0031071999110281467 
vn -0.008967977948486805 0.002592424163594842 0.0028635344933718443 
vn -0.008967977948486805 0.002592424163594842 0.0028635344933718443 
vn -0.009545153938233852 0.00019197945948690176 -0.0020489790476858616 
vn -0.009545153938233852 0.00019197945948690176 -0.0020489790476858616 
vn -0.009357101283967495 -0.00040519970934838057 -0.0027614485006779432 
vn -0.009001333266496658 -0.0011704621138051152 -0.003598770359531045 
vn -0.008430059999227524 -0.002220311900600791 -0.004398799501359463 
vn -0.007890598848462105 -0.0031630881130695343 -0.004804003518074751 
vn -0.00673400703817606 -0.004495590925216675 -0.005457833409309387 
vn -0.006056081969290972 -0.005126460921019316 -0.00569108035415411 
vn -0.0044715930707752705 -0.006102340295910835 -0.006173445377498865 
vn -0.004031049553304911 -0.00633259816095233 -0.00624451506882906 
vn -0.002963230013847351 -0.006836320273578167 -0.006311031989753246 
vn -0.0027608617674559355 -0.006927121430635452 -0.006303789559751749 
vn -0.0013003904605284333 -0.0073348768055438995 -0.006312978453934193 
vn -0.0011378993513062596 -0.007362969685345888 -0.006311655044555664 
vn 0.0013364871265366673 -0.0073348768055438995 -0.006305435206741095 
vn 0.00113789236638695 -0.007362969685345888 -0.006311656441539526 
vn 0.002963222796097398 -0.006836320273578167 -0.0063110352493822575 
vn 0.002760854782536626 -0.006927121430635452 -0.006303792353719473 
vn 0.004501417279243469 -0.006102340295910835 -0.00615173252299428 
vn 0.004061984363943338 -0.00633259816095233 -0.006224437151104212 
vn 0.006734000984579325 -0.004495590925216675 -0.005457840859889984 
vn 0.006056075915694237 -0.005126460921019316 -0.00569108733907342 
vn 0.00843005534261465 -0.002220311900600791 -0.004398808814585209 
vn 0.00787135399878025 -0.0031630881130695343 -0.004835471976548433 
vn 0.009357098489999771 -0.00040519970934838057 -0.002761458745226264 
vn 0.00900132954120636 -0.0011704621138051152 -0.003598780371248722 
vn 0.009545151144266129 0.00019197945948690176 -0.0020489897578954697 
vn 0.009545151144266129 0.00019197945948690176 -0.0020489897578954697 
vn 0.0059011769481003284 -0.007528556510806084 -0.001960123423486948 
vn 0.005273540038615465 -0.00818492192775011 -0.000736178713850677 
vn 0.0059011769481003284 -0.007528556510806084 -0.001960123423486948 
vn 0.005498369224369526 -0.007993835024535656 -0.001100757159292698 
vn 0.0038836270105093718 -0.00888289138674736 0.0011648203944787383 
vn 0.004248257260769606 -0.008754745125770569 0.0008073894423432648 
vn 0.0025420819874852896 -0.009114145301282406 0.0024114942643791437 
vn 0.0028772130608558655 -0.009083177894353867 0.002136038150638342 
vn 0.001562631456181407 -0.009159291163086891 0.0030017830431461334 
vn 0.001755611738190055 -0.009159291163086891 0.0028931547421962023 
vn 0.0008921945700421929 -0.009173990227282047 0.0032228901982307434 
vn 0.001033386797644198 -0.009173990227282047 0.0031804314348846674 
vn 0.0005876545328646898 -0.009159291163086891 0.003332743654027581 
vn 0.0006602180656045675 -0.009159291163086891 0.003319130977615714 
vn 0.00029495058697648346 -0.009159291163086891 0.0033712792210280895 
vn 0.00029495058697648346 -0.009159291163086891 0.0033712792210280895 
vn -0.00029494683258235455 -0.009159291163086891 0.003371279453858733 
vn -0.00029494683258235455 -0.009159291163086891 0.003371279453858733 
vn -0.0005876508075743914 -0.009159291163086891 0.0033327441196888685 
vn -0.00066021439852193 -0.009159291163086891 0.003319131676107645 
vn -0.0009276624186895788 -0.009173990227282047 0.0032128607854247093 
vn -0.0009982628980651498 -0.009173990227282047 0.003191630356013775 
vn -0.001562628080137074 -0.009159291163086891 0.003001784672960639 
vn -0.0017556085949763656 -0.009159291163086891 0.002893156837671995 
vn -0.0025420791935175657 -0.009114145301282406 0.0024114970583468676 
vn -0.0028550566639751196 -0.009083177894353867 0.0021655636373907328 
vn -0.0038728578947484493 -0.00888289138674736 0.0012001404538750648 
vn -0.004248256795108318 -0.008754745125770569 0.0008073941571637988 
vn -0.005278519354760647 -0.00818492192775011 -0.0006995829753577709 
vn -0.005491001531481743 -0.007993835024535656 -0.0011369399726390839 
vn -0.005912715569138527 -0.007528556510806084 -0.0019250367768108845 
vn -0.005912715569138527 -0.007528556510806084 -0.0019250367768108845 
vt 0.9493886828422546 0.8986307978630066 
vt 0.9236078262329102 0.9746435284614563 
vt 0.9549292922019958 0.8190692663192749 
vt 0.8920601606369019 0.918091893196106 
vt 0.9445264935493469 0.7105451226234436 
vt 0.8598340749740601 0.8399041295051575 
vt 0.918293297290802 0.5912600755691528 
vt 0.8078200221061707 0.7207335233688354 
vt 0.8713676333427429 0.47941604256629944 
vt 0.7511699795722961 0.6100342869758606 
vt 0.8299825191497803 0.40340331196784973 
vt 0.7037919163703918 0.5373414158821106 
vt 0.7909719944000244 0.3449055552482605 
vt 0.6620676517486572 0.47655409574508667 
vt 0.6808379292488098 0.23489315807819366 
vt 0.5476367473602295 0.3621915876865387 
vt 0.6232832670211792 0.19471172988414764 
vt 0.48759445548057556 0.31926271319389343 
vt 0.5479759573936462 0.152126282453537 
vt 0.415679395198822 0.27038103342056274 
vt 0.43716344237327576 0.1032446101307869 
vt 0.3059976100921631 0.21165433526039124 
vt 0.31832268834114075 0.07485431432723999 
vt 0.18772220611572266 0.15750670433044434 
vt 0.2101108580827713 0.06271974742412567 
vt 0.11004036664962769 0.12396494299173355 
vt 0.13039368391036987 0.06695540249347687 
vt 0.05395566672086716 0.09156795591115952 
vt 0.09307926893234253 0.10198536515235901 
vt 0.16476818919181824 0.08458485454320908 
vt 0.1496162712574005 0.140106201171875 
vt 0.23826628923416138 0.084012471139431 
vt 0.22220978140830994 0.1720452904701233 
vt 0.33799755573272705 0.0974062830209732 
vt 0.3359622359275818 0.21829399466514587 
vt 0.44801855087280273 0.12419389933347702 
vt 0.4421387016773224 0.2686638832092285 
vt 0.55170738697052 0.1681530624628067 
vt 0.5126968622207642 0.31021901965141296 
vt 0.6223786473274231 0.20673181116580963 
vt 0.5702515244483948 0.34730955958366394 
vt 0.6789156794548035 0.24176177382469177 
vt 0.6789156794548035 0.45365869998931885 
vt 0.7829437255859375 0.3433028757572174 
vt 0.7169085144996643 0.5099813938140869 
vt 0.8195797204971313 0.3993965983390808 
vt 0.7584066987037659 0.579354465007782 
vt 0.8593817949295044 0.47037234902381897 
vt 0.8065761923789978 0.6851311922073364 
vt 0.903254508972168 0.5751187801361084 
vt 0.8484135866165161 0.7993792295455933 
vt 0.9275653958320618 0.6865049004554749 
vt 0.8764559626579285 0.8729879856109619 
vt 0.9370636343955994 0.7872446775436401 
vt 0.9107173681259155 0.9314857125282288 
vt 0.9325406551361084 0.860853374004364 
vt 0.9236078262329102 0.9746435284614563 
vt 0.9493886828422546 0.8986307978630066 
vt 0.9464487433433533 0.9817411303520203 
vt 0.9677066802978516 0.9041256904602051 
vt 0.9549292922019958 0.8190692663192749 
vt 0.9734734296798706 0.8239917755126953 
vt 0.9445264935493469 0.7105451226234436 
vt 0.9648798108100891 0.7138649225234985 
vt 0.918293297290802 0.5912600755691528 
vt 0.9393250942230225 0.5913745164871216 
vt 0.8713676333427429 0.47941604256629944 
vt 0.894208550453186 0.4747224748134613 
vt 0.8299825191497803 0.40340331196784973 
vt 0.852031946182251 0.394130676984787 
vt 0.7909719944000244 0.3449055552482605 
vt 0.8084984421730042 0.33105385303497314 
vt 0.6808379292488098 0.23489315807819366 
vt 0.6950852274894714 0.21749265491962433 
vt 0.6232832670211792 0.19471172988414764 
vt 0.6328945755958557 0.17296110093593597 
vt 0.5479759573936462 0.152126282453537 
vt 0.5530642867088318 0.1293453723192215 
vt 0.43716344237327576 0.1032446101307869 
vt 0.4372765123844147 0.08218084275722504 
vt 0.31832268834114075 0.07485431432723999 
vt 0.3153827488422394 0.05447740852832794 
vt 0.2101108580827713 0.06271974742412567 
vt 0.2054748237133026 0.04405999928712845 
vt 0.13039368391036987 0.06695540249347687 
vt 0.1251922845840454 0.04852460324764252 
vt 0.04728430137038231 0.06855807453393936 
vt 0.05395566672086716 0.09156795591115952 
s on 
f 1/1/1 2/2/2 3/3/3 
f 2/2/2 4/4/4 3/3/3 
f 3/3/3 4/4/4 5/5/5 
f 4/4/4 6/6/6 5/5/5 
f 5/5/5 6/6/6 7/7/7 
f 6/6/6 8/8/8 7/7/7 
f 7/7/7 8/8/8 9/9/9 
f 8/8/8 10/10/10 9/9/9 
f 9/9/9 10/10/10 11/11/11 
f 10/10/10 12/12/12 11/11/11 
f 11/11/11 12/12/12 13/13/13 
f 12/12/12 14/14/14 13/13/13 
f 13/13/13 14/14/14 15/15/15 
f 14/14/14 16/16/16 15/15/15 
f 15/15/15 16/16/16 17/17/17 
f 16/16/16 18/18/18 17/17/17 
f 17/17/17 18/18/18 19/19/19 
f 18/18/18 20/20/20 19/19/19 
f 19/19/19 20/20/20 21/21/21 
f 20/20/20 22/22/22 21/21/21 
f 21/21/21 22/22/22 23/23/23 
f 22/22/22 24/24/24 23/23/23 
f 23/23/23 24/24/24 25/25/25 
f 24/24/24 26/26/26 25/25/25 
f 25/25/25 26/26/26 27/27/27 
f 26/26/26 28/28/28 27/27/27 
f 27/27/27 28/28/28 28/28/28 
f 28/28/28 29/29/29 28/28/28 
f 28/28/28 29/29/29 29/29/29 
f 29/29/29 30/30/30 29/29/29 
f 29/29/29 30/30/30 31/31/31 
f 30/30/30 32/32/32 31/31/31 
f 31/31/31 32/32/32 33/33/33 
f 32/32/32 34/34/34 33/33/33 
f 33/33/33 34/34/34 35/35/35 
f 34/34/34 36/36/36 35/35/35 
f 35/35/35 36/36/36 37/37/37 
f 36/36/36 38/38/38 37/37/37 
f 37/37/37 38/38/38 39/39/39 
f 38/38/38 40/40/40 39/39/39 
f 39/39/39 40/40/40 41/41/41 
f 40/40/40 42/42/42 41/41/41 
f 41/41/41 42/42/42 43/43/43 
f 42/42/42 44/44/44 43/43/43 
f 43/43/43 44/44/44 45/45/45 
f 44/44/44 46/46/46 45/45/45 
f 45/45/45 46/46/46 47/47/47 
f 46/46/46 48/48/48 47/47/47 
f 47/47/47 48/48/48 49/49/49 
f 48/48/48 50/50/50 49/49/49 
f 49/49/49 50/50/50 51/51/51 
f 50/50/50 52/52/52 51/51/51 
f 51/51/51 52/52/52 53/53/53 
f 52/52/52 54/54/54 53/53/53 
f 53/53/53 54/54/54 55/55/55 
f 54/54/54 56/56/56 55/55/55 
f 55/55/55 56/56/56 56/56/56 
f 56/56/56 57/57/57 56/56/56 
f 56/56/56 57/57/57 57/57/57 
f 57/57/57 58/58/58 57/57/57 
f 57/57/57 58/58/58 59/59/59 
f 58/58/58 60/60/60 59/59/59 
f 59/59/59 60/60/60 60/60/60 
f 60/60/60 58/58/58 60/60/60 
f 60/60/60 58/58/58 58/58/58 
f 58/58/58 61/61/61 58/58/58 
f 58/58/58 61/61/61 60/60/60 
f 61/61/61 62/62/62 60/60/60 
f 60/60/60 62/62/62 62/62/62 
f 62/62/62 61/61/61 62/62/62 
f 62/62/62 61/61/61 61/61/61 
f 61/61/61 63/63/63 61/61/61 
f 61/61/61 63/63/63 62/62/62 
f 63/63/63 64/64/64 62/62/62 
f 62/62/62 64/64/64 64/64/64 
f 64/64/64 63/63/63 64/64/64 
f 64/64/64 63/63/63 63/63/63 
f 63/63/63 65/65/65 63/63/63 
f 63/63/63 65/65/65 64/64/64 
f 65/65/65 66/66/66 64/64/64 
f 64/64/64 66/66/66 66/66/66 
f 66/66/66 65/65/65 66/66/66 
f 66/66/66 65/65/65 65/65/65 
f 65/65/65 67/67/67 65/65/65 
f 65/65/65 67/67/67 66/66/66 
f 67/67/67 68/68/68 66/66/66 
f 66/66/66 68/68/68 68/68/68 
f 68/68/68 67/67/67 68/68/68 
f 68/68/68 67/67/67 67/67/67 
f 67/67/67 69/69/69 67/67/67 
f 67/67/67 69/69/69 68/68/68 
f 69/69/69 70/70/70 68/68/68 
f 68/68/68 70/70/70 70/70/70 
f 70/70/70 69/69/69 70/70/70 
f 70/70/70 69/69/69 69/69/69 
f 69/69/69 71/71/71 69/69/69 
f 69/69/69 71/71/71 70/70/70 
f 71/71/71 72/72/72 70/70/70 
f 70/70/70 72/72/72 72/72/72 
f 72/72/72 71/71/71 72/72/72 
f 72/72/72 71/71/71 71/71/71 
f 71/71/71 73/73/73 71/71/71 
f 71/71/71 73/73/73 72/72/72 
f 73/73/73 74/74/74 72/72/72 
f 72/72/72 74/74/74 74/74/74 
f 74/74/74 73/73/73 74/74/74 
f 74/74/74 73/73/73 73/73/73 
f 73/73/73 75/75/75 73/73/73 
f 73/73/73 75/75/75 74/74/74 
f 75/75/75 76/76/76 74/74/74 
f 74/74/74 76/76/76 76/76/76 
f 76/76/76 75/75/75 76/76/76 
f 76/76/76 75/75/75 75/75/75 
f 75/75/75 77/77/77 75/75/75 
f 75/75/75 77/77/77 76/76/76 
f 77/77/77 78/78/78 76/76/76 
f 76/76/76 78/78/78 78/78/78 
f 78/78/78 77/77/77 78/78/78 
f 78/78/78 77/77/77 77/77/77 
f 77/77/77 79/79/79 77/77/77 
f 77/77/77 79/79/79 78/78/78 
f 79/79/79 80/80/80 78/78/78 
f 78/78/78 80/80/80 80/80/80 
f 80/80/80 79/79/79 80/80/80 
f 80/80/80 79/79/79 79/79/79 
f 79/79/79 81/81/81 79/79/79 
f 79/79/79 81/81/81 80/80/80 
f 81/81/81 82/82/82 80/80/80 
f 80/80/80 82/82/82 82/82/82 
f 82/82/82 81/81/81 82/82/82 
f 82/82/82 81/81/81 81/81/81 
f 81/81/81 83/83/83 81/81/81 
f 81/81/81 83/83/83 82/82/82 
f 83/83/83 84/84/84 82/82/82 
f 82/82/82 84/84/84 84/84/84 
f 84/84/84 83/83/83 84/84/84 
f 84/84/84 83/83/83 83/83/83 
f 83/83/83 85/85/85 83/83/83 
f 83/83/83 85/85/85 84/84/84 
f 85/85/85 86/86/86 84/84/84 
f 84/84/84 86/86/86 86/86/86 
f 86/86/86 85/85/85 86/86/86 
f 86/86/86 85/85/85 87/87/87 
f 85/85/85 88/88/88 87/87/87 

