mtllib model_4.mtl
o model_4
v 2.5402863025665283 96.32550048828125 -11.288963317871094 
v 2.5402863025665283 96.32550048828125 -18.375001907348633 
v 4.165773391723633 102.09393310546875 -11.288963317871094 
v 4.165773391723633 102.09393310546875 -18.375001907348633 
v 5.509616851806641 106.65887451171875 -11.288963317871094 
v 5.509616851806641 106.65887451171875 -13.840780258178711 
v -2.6339120864868164 96.32550048828125 -11.288963317871094 
v 2.5402863025665283 96.32550048828125 -11.288963317871094 
v -4.2674455642700195 102.09393310546875 -11.288963317871094 
v 4.165773391723633 102.09393310546875 -11.288963317871094 
v -5.60324239730835 106.65887451171875 -11.288963317871094 
v 5.509616851806641 106.65887451171875 -11.288963317871094 
v 2.5402863025665283 96.32550048828125 -18.375001907348633 
v -2.6339120864868164 96.32550048828125 -18.375001907348633 
v 4.165773391723633 102.09393310546875 -18.375001907348633 
v -4.2674455642700195 102.09393310546875 -18.375001907348633 
v 5.509616851806641 106.65887451171875 -13.840780258178711 
v -5.60324239730835 106.65887451171875 -13.840780258178711 
v 5.509616851806641 106.65887451171875 -11.288963317871094 
v -5.60324239730835 106.65887451171875 -11.288963317871094 
v 0.029633386060595512 159.23873901367188 16.190526962280273 
v 0.029633386060595512 159.90274047851562 20.682565689086914 
v -3.7926747798919678 160.40072631835938 15.304769515991211 
v -2.65000581741333 160.77423095703125 20.851282119750977 
v -6.584971904754639 163.92819213867188 13.364545822143555 
v -4.6054182052612305 163.0981903076172 21.3574275970459 
v -8.210458755493164 168.28562927246094 12.731863021850586 
v -5.321598052978516 166.2936553955078 22.032289505004883 
v -8.1702241897583 175.67254638671875 14.313570022583008 
v -4.6054182052612305 168.9081268310547 22.728239059448242 
v -5.225034713745117 180.02999877929688 17.308263778686523 
v -2.65000581741333 171.23208618164062 23.234384536743164 
v 0.029633386060595512 181.2749786376953 18.91105842590332 
v 0.029633386060595512 172.22808837890625 23.403100967407227 
v 5.276254653930664 180.02999877929688 17.308263778686523 
v 2.701225757598877 171.23208618164062 23.234384536743164 
v 8.229491233825684 175.67254638671875 14.313570022583008 
v 4.656638145446777 168.9081268310547 22.728239059448242 
v 8.261678695678711 168.28562927246094 12.731863021850586 
v 5.3728179931640625 166.2936553955078 22.032289505004883 
v 6.644238471984863 163.92819213867188 13.364545822143555 
v 4.656638145446777 163.0981903076172 21.3574275970459 
v 3.8438949584960938 160.40072631835938 15.304769515991211 
v 2.701225757598877 160.77423095703125 20.851282119750977 
v 0.029633386060595512 159.23873901367188 16.190526962280273 
v 0.029633386060595512 159.90274047851562 20.682565689086914 
v 0.029633386060595512 162.51719665527344 23.382009506225586 
v -1.595853567123413 162.93218994140625 23.466367721557617 
v -2.778757333755493 164.09417724609375 23.740530014038086 
v -3.2132935523986816 165.67117309570312 24.077959060668945 
v -2.778757333755493 167.28964233398438 24.436479568481445 
v -1.595853567123413 168.41012573242188 24.68955421447754 
v 0.029633386060595512 168.8666229248047 24.795000076293945 
v 1.6470732688903809 168.41012573242188 24.68955421447754 
v 2.838024139404297 167.28964233398438 24.436479568481445 
v 3.2725603580474854 165.67117309570312 24.077959060668945 
v 2.838024139404297 164.09417724609375 23.740530014038086 
v 1.6470732688903809 162.93218994140625 23.466367721557617 
v 0.029633386060595512 162.51719665527344 23.382009506225586 
v 2.5402863025665283 96.32550048828125 -11.288963317871094 
v -2.6339120864868164 96.32550048828125 -11.288963317871094 
v 2.5402863025665283 96.32550048828125 -18.375001907348633 
v -2.6339120864868164 96.32550048828125 -18.375001907348633 
v -5.60324239730835 106.65887451171875 -11.288963317871094 
v -5.60324239730835 106.65887451171875 -13.840780258178711 
v -4.2674455642700195 102.09393310546875 -11.288963317871094 
v -4.2674455642700195 102.09393310546875 -18.375001907348633 
v -2.6339120864868164 96.32550048828125 -18.375001907348633 
v -2.6339120864868164 96.32550048828125 -11.288963317871094 
vn 1.022814154624939 -0.2864931523799896 -6.36143713305049e-17 
vn 1.022814154624939 -0.2864931523799896 -6.36143713305049e-17 
vn 1.0201023817062378 -0.2948545813560486 -6.547098814154752e-17 
vn 1.0214680433273315 -0.29067665338516235 -6.454329515840195e-17 
vn 1.0187172889709473 -0.2990269064903259 -6.639743042760691e-17 
vn 1.0187172889709473 -0.2990269064903259 -6.639743042760691e-17 
vn 3.3072047704585383e-13 0.002184694167226553 0.999997615814209 
vn 3.3072047704585383e-13 0.002184694167226553 0.999997615814209 
vn 3.3072047704585383e-13 0.002184694167226553 0.999997615814209 
vn 3.3072047704585383e-13 0.002184694167226553 0.999997615814209 
vn 3.3072047704585383e-13 0.002184694167226553 0.999997615814209 
vn 3.3072047704585383e-13 0.002184694167226553 0.999997615814209 
vn -0.0020176225807517767 -0.6452018022537231 -0.7640098929405212 
vn -0.0020176225807517767 -0.6452018022537231 -0.7640098929405212 
vn 0.004026502370834351 0.44481781125068665 -0.8956131339073181 
vn 0.004026502370834351 0.44481781125068665 -0.8956131339073181 
vn -3.916517717778012e-14 0.9349566102027893 -0.3547620177268982 
vn -3.916517717778012e-14 0.9349566102027893 -0.3547620177268982 
vn 0 1 2.2204500197172533e-16 
vn 0 1 2.2204500197172533e-16 
vn -0.0020248049404472113 -0.9896226525306702 0.14367829263210297 
vn -0.004041122272610664 -0.913308322429657 0.4072512090206146 
vn -0.65779709815979 -0.7710143327713013 0.16085973381996155 
vn -0.4875708520412445 -0.7874425053596497 0.4139409363269806 
vn -0.9440556168556213 -0.417220801115036 0.20958489179611206 
vn -0.8050082325935364 -0.4911448359489441 0.43608367443084717 
vn -1.005686640739441 -0.1328723281621933 0.30807119607925415 
vn -0.9067023396492004 -0.15880759060382843 0.503425657749176 
vn -0.9009345769882202 0.1458524912595749 0.5162677764892578 
vn -0.80097496509552 0.1328723281621933 0.6476268172264099 
vn -0.5760383009910583 0.3649536371231079 0.758722722530365 
vn -0.48780113458633423 0.3527185618877411 0.8165814876556396 
vn 2.922428737808097e-13 0.46814218163490295 0.8836531639099121 
vn 0.0020138181280344725 0.43697428703308105 0.8994719982147217 
vn 0.5793169736862183 0.3649536371231079 0.7565291523933411 
vn 0.4842815101146698 0.3527185618877411 0.8184176087379456 
vn 0.9009345769882202 0.1458524912595749 0.5162677764892578 
vn 0.7983364462852478 0.1328723281621933 0.6504791975021362 
vn 1.0044270753860474 -0.1328723281621933 0.3116562068462372 
vn 0.9067023396492004 -0.15880759060382843 0.503425657749176 
vn 0.9440556168556213 -0.417220801115036 0.20958489179611206 
vn 0.807017982006073 -0.4911448359489441 0.43281206488609314 
vn 0.6567655801773071 -0.7710143327713013 0.1645161360502243 
vn 0.4875708520412445 -0.7874425053596497 0.4139409363269806 
vn -0.0020248049404472113 -0.9896226525306702 0.14367829263210297 
vn -0.004041122272610664 -0.913308322429657 0.4072512090206146 
vn 0.004036059137433767 -0.7276512384414673 0.6859368681907654 
vn -0.3470546007156372 -0.6584556698799133 0.6787875294685364 
vn -0.6214495897293091 -0.456519216299057 0.6728501915931702 
vn -0.7223600745201111 -0.16312000155448914 0.7180150747299194 
vn -0.618571400642395 0.1415284425020218 0.8026446104049683 
vn -0.35477325320243835 0.3363112509250641 0.8811684846878052 
vn -0.004025615286082029 0.3932546079158783 0.9194218516349792 
vn 0.35477325320243835 0.3363112509250641 0.8811684846878052 
vn 0.618571400642395 0.1415284425020218 0.8026446104049683 
vn 0.725287914276123 -0.16312000155448914 0.7154206037521362 
vn 0.6214495897293091 -0.456519216299057 0.6728501915931702 
vn 0.3470546007156372 -0.6584556698799133 0.6787875294685364 
vn 0.004036059137433767 -0.7276512384414673 0.6859368681907654 
vn -2.20796905064935e-13 -1 -2.2204500197172533e-16 
vn -2.20796905064935e-13 -1 -2.2204500197172533e-16 
vn -0.0020176225807517767 -0.6452018022537231 -0.7640098929405212 
vn -0.0020176225807517767 -0.6452018022537231 -0.7640098929405212 
vn -1.0187172889709473 -0.2990269064903259 1.9686968797793386e-13 
vn -1.0187172889709473 -0.2990269064903259 1.9686968797793386e-13 
vn -1.020094394683838 -0.2948545813560486 0.003775995457544923 
vn -1.0214680433273315 -0.29067665338516235 1.978282311186283e-13 
vn -1.0228062868118286 -0.2864931523799896 0.0037765325978398323 
vn -1.0228062868118286 -0.2864931523799896 0.0037765325978398323 
vt 0.4935856759548187 0.9887661933898926 
vt 0.4723954200744629 0.7131466865539551 
vt 0.7295892834663391 0.9711683988571167 
vt 0.6770793795585632 0.7388299703598022 
vt 0.911569356918335 0.916591465473175 
vt 0.8920091390609741 0.8145717978477478 
vt 0.1473228633403778 0.6077977418899536 
vt 0.34665101766586304 0.6077977418899536 
vt 0.08433423191308975 0.8173065781593323 
vt 0.4096396565437317 0.8174254894256592 
vt 0.032755739986896515 0.9819886088371277 
vt 0.4611017107963562 0.9821075201034546 
vt 0.4723954200744629 0.7131466865539551 
vt 0.4725118577480316 0.47343623638153076 
vt 0.6770793795585632 0.7388299703598022 
vt 0.6771957874298096 0.4478718638420105 
vt 0.8920091390609741 0.8145717978477478 
vt 0.8920091390609741 0.37213000655174255 
vt 0.984338104724884 0.8075564503669739 
vt 0.984338104724884 0.3791453540325165 
vt 0.4308299124240875 0.35239195823669434 
vt 0.36690983176231384 0.34287962317466736 
vt 0.449342280626297 0.29412898421287537 
vt 0.371567040681839 0.3029278814792633 
vt 0.47262826561927795 0.22659152746200562 
vt 0.36364978551864624 0.2622627317905426 
vt 0.46936824917793274 0.15822172164916992 
vt 0.34676745533943176 0.22195427119731903 
vt 0.41720759868621826 0.06238510087132454 
vt 0.3245293200016022 0.19080142676830292 
vt 0.340480238199234 0.020411988720297813 
vt 0.29204535484313965 0.16476143896579742 
vt 0.25606846809387207 0.01482350006699562 
vt 0.2530412971973419 0.15489241480827332 
vt 0.171540305018425 0.019104044884443283 
vt 0.21357153356075287 0.16547486186027527 
vt 0.09318290650844574 0.057747844606637955 
vt 0.1800396889448166 0.1903257966041565 
vt 0.03694722056388855 0.14882831275463104 
vt 0.1566372662782669 0.218149334192276 
vt 0.030659999698400497 0.21684139966964722 
vt 0.13789202272891998 0.2576254606246948 
vt 0.05080239102244377 0.2853300869464874 
vt 0.12799547612667084 0.2979339361190796 
vt 0.0662875771522522 0.34430649876594543 
vt 0.1306733638048172 0.33800455927848816 
vt 0.31789281964302063 0.3212391138076782 
vt 0.3230157196521759 0.29591256380081177 
vt 0.31998854875564575 0.26927804946899414 
vt 0.3109070062637329 0.24490274488925934 
vt 0.29612040519714355 0.2246890664100647 
vt 0.2759779989719391 0.21077729761600494 
vt 0.25199341773986816 0.2053077071905136 
vt 0.2278924137353897 0.20970715582370758 
vt 0.20728431642055511 0.2230243980884552 
vt 0.191449835896492 0.2426435649394989 
vt 0.18108755350112915 0.2666621804237366 
vt 0.176779642701149 0.2931777536869049 
vt 0.18062183260917664 0.31874212622642517 
vt 0.34665101766586304 0.6077977418899536 
vt 0.1473228633403778 0.6077977418899536 
vt 0.34676745533943176 0.3516785204410553 
vt 0.1473228633403778 0.3516785204410553 
vt 0.9116858243942261 0.2701103985309601 
vt 0.8920091390609741 0.37213000655174255 
vt 0.7297056913375854 0.21541455388069153 
vt 0.6771957874298096 0.4478718638420105 
vt 0.4725118577480316 0.47343623638153076 
vt 0.49370211362838745 0.19781675934791565 
s on 
f 1/1/1 2/2/2 3/3/3 
f 2/2/2 4/4/4 3/3/3 
f 3/3/3 4/4/4 5/5/5 
f 4/4/4 6/6/6 5/5/5 
f 5/5/5 6/6/6 6/6/6 
f 6/6/6 7/7/7 6/6/6 
f 6/6/6 7/7/7 7/7/7 
f 7/7/7 8/8/8 7/7/7 
f 7/7/7 8/8/8 9/9/9 
f 8/8/8 10/10/10 9/9/9 
f 9/9/9 10/10/10 11/11/11 
f 10/10/10 12/12/12 11/11/11 
f 11/11/11 12/12/12 12/12/12 
f 12/12/12 13/13/13 12/12/12 
f 12/12/12 13/13/13 13/13/13 
f 13/13/13 14/14/14 13/13/13 
f 13/13/13 14/14/14 15/15/15 
f 14/14/14 16/16/16 15/15/15 
f 15/15/15 16/16/16 17/17/17 
f 16/16/16 18/18/18 17/17/17 
f 17/17/17 18/18/18 19/19/19 
f 18/18/18 20/20/20 19/19/19 
f 19/19/19 20/20/20 20/20/20 
f 20/20/20 21/21/21 20/20/20 
f 20/20/20 21/21/21 21/21/21 
f 21/21/21 22/22/22 21/21/21 
f 21/21/21 22/22/22 23/23/23 
f 22/22/22 24/24/24 23/23/23 
f 23/23/23 24/24/24 25/25/25 
f 24/24/24 26/26/26 25/25/25 
f 25/25/25 26/26/26 27/27/27 
f 26/26/26 28/28/28 27/27/27 
f 27/27/27 28/28/28 29/29/29 
f 28/28/28 30/30/30 29/29/29 
f 29/29/29 30/30/30 31/31/31 
f 30/30/30 32/32/32 31/31/31 
f 31/31/31 32/32/32 33/33/33 
f 32/32/32 34/34/34 33/33/33 
f 33/33/33 34/34/34 35/35/35 
f 34/34/34 36/36/36 35/35/35 
f 35/35/35 36/36/36 37/37/37 
f 36/36/36 38/38/38 37/37/37 
f 37/37/37 38/38/38 39/39/39 
f 38/38/38 40/40/40 39/39/39 
f 39/39/39 40/40/40 41/41/41 
f 40/40/40 42/42/42 41/41/41 
f 41/41/41 42/42/42 43/43/43 
f 42/42/42 44/44/44 43/43/43 
f 43/43/43 44/44/44 45/45/45 
f 44/44/44 46/46/46 45/45/45 
f 45/45/45 46/46/46 46/46/46 
f 46/46/46 22/22/22 46/46/46 
f 46/46/46 22/22/22 22/22/22 
f 22/22/22 47/47/47 22/22/22 
f 22/22/22 47/47/47 24/24/24 
f 47/47/47 48/48/48 24/24/24 
f 24/24/24 48/48/48 26/26/26 
f 48/48/48 49/49/49 26/26/26 
f 26/26/26 49/49/49 28/28/28 
f 49/49/49 50/50/50 28/28/28 
f 28/28/28 50/50/50 30/30/30 
f 50/50/50 51/51/51 30/30/30 
f 30/30/30 51/51/51 32/32/32 
f 51/51/51 52/52/52 32/32/32 
f 32/32/32 52/52/52 34/34/34 
f 52/52/52 53/53/53 34/34/34 
f 34/34/34 53/53/53 54/54/54 
f 53/53/53 54/54/54 54/54/54 
f 54/54/54 54/54/54 34/34/34 
f 54/54/54 34/34/34 34/34/34 
f 34/34/34 34/34/34 34/34/34 
f 34/34/34 54/54/54 34/34/34 
f 34/34/34 54/54/54 36/36/36 
f 54/54/54 55/55/55 36/36/36 
f 36/36/36 55/55/55 38/38/38 
f 55/55/55 56/56/56 38/38/38 
f 38/38/38 56/56/56 40/40/40 
f 56/56/56 57/57/57 40/40/40 
f 40/40/40 57/57/57 42/42/42 
f 57/57/57 58/58/58 42/42/42 
f 42/42/42 58/58/58 44/44/44 
f 58/58/58 59/59/59 44/44/44 
f 44/44/44 59/59/59 46/46/46 
f 59/59/59 46/46/46 46/46/46 
f 46/46/46 46/46/46 60/60/60 
f 46/46/46 60/60/60 60/60/60 
f 60/60/60 60/60/60 60/60/60 
f 60/60/60 61/61/61 60/60/60 
f 60/60/60 61/61/61 62/62/62 
f 61/61/61 63/63/63 62/62/62 
f 62/62/62 63/63/63 63/63/63 
f 63/63/63 64/64/64 63/63/63 
f 63/63/63 64/64/64 64/64/64 
f 64/64/64 65/65/65 64/64/64 
f 64/64/64 65/65/65 66/66/66 
f 65/65/65 67/67/67 66/66/66 
f 66/66/66 67/67/67 68/68/68 
f 68/68/68 69/69/69 66/66/66 

